<svg width="75" height="75" viewBox="0 0 75 75" fill="none" xmlns="http://www.w3.org/2000/svg">
<circle cx="37.5" cy="37.5" r="37.5" fill="#F2F2F2"/>
<g clip-path="url(#clip0_2_1568)">
<path d="M63 28.9754C63.0016 28.5829 62.8455 28.2064 62.5669 27.9299L50.0397 15.5003C49.467 14.9321 48.5425 14.9338 47.9721 15.5044L44.3317 19.1448C42.2049 18.9434 40.0352 19.1673 38.0007 19.7988C35.9631 19.1665 33.7977 18.9428 31.6683 19.1448L28.0279 15.5045C27.4574 14.934 26.5331 14.9321 25.9604 15.5004L13.4331 27.9299C13.1545 28.2064 12.9985 28.583 13 28.9754C13.0015 29.3678 13.1606 29.7433 13.4412 30.0175L17.1661 33.6567C16.9605 35.8434 17.2032 38.0763 17.8777 40.1598C18.3039 41.4761 18.8877 42.7108 19.6205 43.856L18.9697 44.5068C17.2564 46.2201 17.2564 49.008 18.9697 50.7215C19.3741 51.126 19.8389 51.4336 20.3348 51.6472C19.3755 53.3253 19.6104 55.5053 21.0414 56.9363C22.4808 58.3757 24.6577 58.6035 26.3289 57.6452C26.5462 58.1474 26.8577 58.6094 27.2563 59.0079C28.9709 60.7227 31.7589 60.72 33.471 59.0079L33.8569 58.622L34.7514 59.5164C34.8006 59.5657 34.8526 59.6108 34.9067 59.6515C35.735 60.4728 36.8328 60.9249 38.0002 60.9249C39.1698 60.9249 40.2696 60.471 41.0987 59.6467C41.9177 58.853 41.6275 59.138 42.1435 58.6221C42.6521 59.1307 43.675 60.2951 45.6368 60.2951C46.8107 60.2951 47.9142 59.838 48.7442 59.008C49.143 58.6092 49.4547 58.1468 49.672 57.6443C51.3562 58.6057 53.5323 58.3631 54.959 56.9363C56.3901 55.5054 56.6249 53.3252 55.6656 51.6472C56.1615 51.4337 56.6262 51.126 57.0306 50.7215C58.7482 49.0041 58.7483 46.2243 57.0306 44.5068L56.377 43.8531C58.292 40.846 59.1691 37.226 58.8341 33.6567L62.5592 30.0174C62.8396 29.7433 62.9985 29.3679 63 28.9754ZM21.0413 48.65C20.4701 48.0788 20.4701 47.1495 21.0412 46.5783L21.434 46.1856C21.5581 46.3181 21.684 46.4492 21.8131 46.5783L23.4988 48.2641L23.1129 48.65C22.5417 49.2211 21.6125 49.2212 21.0413 48.65ZM25.1845 54.8649C24.6119 55.4373 23.6855 55.4373 23.1129 54.8649C22.5403 54.2922 22.5403 53.3658 23.1129 52.7932L25.5704 50.3357L27.6421 52.4072L25.1845 54.8649ZM31.3992 56.9364C30.8279 57.5075 29.8987 57.5075 29.3277 56.9364C29.051 56.6598 28.8985 56.2919 28.8985 55.9007C28.8985 55.5094 29.051 55.1416 29.3277 54.8649C29.3277 54.8649 29.3277 54.8648 29.3278 54.8647L29.7136 54.4789L31.7852 56.5505L31.3992 56.9364ZM54.9587 48.6502C54.3874 49.2213 53.4582 49.2213 52.8871 48.6502C52.8871 48.6502 52.8871 48.6502 52.887 48.6501L42.5291 38.292C41.9571 37.7199 41.0296 37.7199 40.4575 38.292C39.8855 38.8641 39.8855 39.7915 40.4575 40.3636L52.8871 52.7932C53.4583 53.3644 53.4583 54.2937 52.8871 54.8648C52.316 55.4361 51.3867 55.436 50.8154 54.8648C50.1306 54.1799 39.1173 43.1666 38.3859 42.4352C37.8139 41.8631 36.8863 41.8631 36.3143 42.4352C35.7422 43.0072 35.7422 43.9347 36.3143 44.5068L46.6732 54.8657C47.2446 55.4382 47.2448 56.3638 46.6723 56.9364C46.0998 57.5089 45.1732 57.5089 44.6006 56.9364L34.2427 46.5784C33.6707 46.0064 32.7432 46.0064 32.1711 46.5784C31.599 47.1505 31.599 48.0779 32.1711 48.65L40.0716 56.5505C39.596 57.0261 39.8105 56.8153 39.0522 57.55C39.0466 57.5554 39.0412 57.5608 39.0358 57.5662C38.7591 57.8429 38.3911 57.9953 38 57.9953C37.6087 57.9953 37.2409 57.8429 36.9644 57.5663C36.9589 57.5609 36.9534 57.5555 36.9479 57.5501C36.0765 56.7058 24.8192 45.4412 23.8847 44.5069C20.9246 41.5469 19.5653 37.4689 20.1552 33.3185C20.2209 32.8565 20.0624 32.3907 19.7286 32.0646L16.5527 28.9617L26.988 18.6077L30.0987 21.7185C30.4244 22.0443 30.8846 22.1979 31.3406 22.1329C32.0602 22.0307 32.7876 21.99 33.5132 22.007C32.7663 22.5352 32.0604 23.1297 31.3993 23.7908C29.5913 25.5989 24.6994 30.4907 23.1129 32.0773C21.3954 33.7948 21.3951 36.5744 23.1129 38.2921C23.9695 39.1488 25.0949 39.5772 26.2202 39.5772C27.3456 39.5772 28.471 39.1488 29.3277 38.2921L35.2045 32.4153C37.121 33.0982 39.1693 33.1806 41.0902 32.7101L54.9587 46.5786C55.5313 47.1512 55.5313 48.0776 54.9587 48.6502ZM56.2714 32.0645C55.9376 32.3906 55.7791 32.8563 55.8448 33.3184C56.2571 36.2195 55.6767 39.1991 54.2435 41.7199L44.0146 31.491C44.6897 31.0771 45.324 30.5819 45.9005 30.0056C46.4726 29.4335 46.4726 28.5061 45.9005 27.934C45.3285 27.3619 44.401 27.3619 43.8289 27.934C41.6373 30.1256 38.287 30.7012 35.4918 29.366C34.9319 29.0986 34.2636 29.213 33.8246 29.6521L27.2562 36.2205C26.6851 36.7917 25.756 36.7918 25.1845 36.2205C24.9078 35.9439 24.7554 35.576 24.7554 35.1847C24.7554 34.7935 24.9078 34.4256 25.1845 34.1489C26.8979 32.4356 31.7757 27.5577 33.4709 25.8625C33.471 25.8624 33.4711 25.8622 33.4713 25.8621C36.4121 22.9216 40.4857 21.5399 44.6595 22.1329C45.1151 22.1978 45.5757 22.0443 45.9014 21.7185L49.0121 18.6077L59.4473 28.9617L56.2714 32.0645Z" fill="#3CE800"/>
</g>
<defs>
<clipPath id="clip0_2_1568">
<rect width="50" height="50" fill="white" transform="translate(13 13)"/>
</clipPath>
</defs>
</svg>
