<svg width="75" height="75" viewBox="0 0 75 75" fill="none" xmlns="http://www.w3.org/2000/svg">
<circle cx="37.5" cy="37.5" r="37.5" fill="#F2F2F2"/>
<g clip-path="url(#clip0_2_1567)">
<path d="M62.1381 37.2641C61.9917 30.7595 59.3562 24.698 54.7182 20.1963C50.0866 15.7015 44.0043 13.2938 37.5932 13.4141C31.1798 13.2923 25.0997 15.7015 20.4685 20.1963C15.8302 24.698 13.1951 30.7595 13.0482 37.2637L13.0479 37.2842V37.3046C13.0816 43.9333 15.8841 50.2357 20.7498 54.6527V60.6626C20.7498 61.8291 21.554 62.845 22.6616 63.0787C22.8257 63.1132 22.9909 63.1306 23.1553 63.1306C23.601 63.1306 24.0393 63.0043 24.4251 62.7604L29.1945 59.7427C31.8843 60.6968 34.691 61.1801 37.5445 61.1801H37.5804C37.7385 61.1831 37.8947 61.1846 38.0524 61.1846C44.2954 61.1842 50.1975 58.7849 54.7182 54.3978C59.3562 49.8961 61.9917 43.8346 62.1381 37.3304L62.1389 37.2971L62.1381 37.2641ZM52.7259 52.2925C48.6415 56.2566 43.2773 58.3775 37.6216 58.2644L37.6059 58.2641H37.5902C34.9363 58.2701 32.3244 57.8024 29.8309 56.8764C29.2144 56.6477 28.5428 56.7175 27.988 57.0684L23.6291 59.8258V54.2977C23.6291 53.6808 23.3643 53.094 22.9025 52.6877C18.5046 48.8158 15.9631 43.2114 15.9276 37.31C16.0617 31.5902 18.381 26.2612 22.4608 22.3017C26.5448 18.3379 31.9105 16.2178 37.5647 16.3301L37.5932 16.3304L37.6216 16.3301C43.2762 16.2189 48.6415 18.3379 52.7259 22.3017C56.802 26.2578 59.1213 31.5827 59.2588 37.2971C59.1213 43.0118 56.802 48.3363 52.7259 52.2925V52.2925Z" fill="#3CE800"/>
<path d="M48.1416 30.3334H27.0449C26.2501 30.3334 25.6055 30.9858 25.6055 31.7912C25.6055 32.5965 26.2501 33.2494 27.0449 33.2494H48.1416C48.9368 33.2494 49.5814 32.5965 49.5814 31.7912C49.5814 30.9858 48.9368 30.3334 48.1416 30.3334Z" fill="#3CE800"/>
<path d="M48.1416 36.783H27.0449C26.2501 36.783 25.6055 37.4358 25.6055 38.2408C25.6055 39.0461 26.2501 39.699 27.0449 39.699H48.1416C48.9368 39.699 49.5814 39.0461 49.5814 38.2408C49.5814 37.4358 48.9368 36.783 48.1416 36.783V36.783Z" fill="#3CE800"/>
<path d="M48.1415 43.2325H37.7688C36.974 43.2325 36.3293 43.8854 36.3293 44.6907C36.3293 45.4957 36.974 46.1485 37.7688 46.1485H48.1415C48.9367 46.1485 49.5813 45.4957 49.5813 44.6907C49.5813 43.8854 48.9367 43.2325 48.1415 43.2325Z" fill="#3CE800"/>
</g>
<defs>
<clipPath id="clip0_2_1567">
<rect width="49" height="49.7209" fill="white" transform="translate(13 13.4094)"/>
</clipPath>
</defs>
</svg>
